<?xml version="1.0" encoding="utf-8"?>
<!-- Generator: Adobe Illustrator 16.0.0, SVG Export Plug-In . SVG Version: 6.00 Build 0)  -->
<!DOCTYPE svg PUBLIC "-//W3C//DTD SVG 1.1//EN" "http://www.w3.org/Graphics/SVG/1.1/DTD/svg11.dtd">
<svg version="1.1" id="圖層_1" xmlns="http://www.w3.org/2000/svg" xmlns:xlink="http://www.w3.org/1999/xlink" x="0px" y="0px"
	 width="67px" height="66px" viewBox="0 0 67 66" enable-background="new 0 0 67 66" xml:space="preserve">
<rect x="4.5" y="5.5" stroke="#666666" stroke-miterlimit="10" width="58" height="58"/>
<g>
	<polygon fill="#FFFFFF" points="33.5,37.217 22.826,47.891 20.109,45.174 30.783,34.5 20.109,23.826 22.826,21.109 33.5,31.783 
		44.174,21.109 46.891,23.826 36.217,34.5 46.891,45.174 44.174,47.891 	"/>
	<path fill="#FFFFFF" d="M44.174,22.662l1.165,1.165L34.665,34.5l10.674,10.674l-1.165,1.165L33.5,35.665L22.826,46.338
		l-1.165-1.165L32.335,34.5L21.662,23.826l1.165-1.165L33.5,33.335L44.174,22.662 M44.174,19.557l-1.553,1.552L33.5,30.23
		l-9.121-9.122l-1.553-1.552l-1.553,1.552l-1.165,1.165l-1.552,1.553l1.552,1.553L29.23,34.5l-9.122,9.121l-1.552,1.553l1.552,1.553
		l1.165,1.166l1.553,1.551l1.553-1.551L33.5,38.77l9.121,9.123l1.553,1.551l1.553-1.551l1.166-1.166l1.551-1.553l-1.551-1.553
		L37.77,34.5l9.123-9.121l1.551-1.553l-1.551-1.553l-1.166-1.165L44.174,19.557L44.174,19.557z"/>
</g>
</svg>
